<?xml version="1.0" encoding="UTF-8"?>
<svg xmlns="http://www.w3.org/2000/svg" xmlns:xlink="http://www.w3.org/1999/xlink" viewBox="0 0 40 40" width="40px" height="40px">
    <g id="surface">
        <path style="stroke:#363636;fill-rule:nonzero;fill:rgb(90%,90%,90%);fill-opacity:1;" d="M 21 37.75 C 11.210938 37.75 3.25 29.789062 3.25 20 C 3.25 10.210938 11.210938 2.25 21 2.25 C 30.789062 2.25 38.75 10.210938 38.75 20 C 38.75 29.789062 30.789062 37.75 21 37.75 Z M 21 7.75 C 14.246094 7.75 8.75 13.246094 8.75 20 C 8.75 26.753906 14.246094 32.25 21 32.25 C 27.753906 32.25 33.25 26.753906 33.25 20 C 33.25 13.246094 27.753906 7.75 21 7.75 Z M 21 7.75 "/>
        <path style="stroke:#363636;fill-rule:nonzero;fill:rgb(90%,90%,90%);fill-opacity:1;" d="M 21 2.5 C 30.648438 2.5 38.5 10.351562 38.5 20 C 38.5 29.648438 30.648438 37.5 21 37.5 C 11.351562 37.5 3.5 29.648438 3.5 20 C 3.5 10.351562 11.351562 2.5 21 2.5 M 21 32.5 C 27.890625 32.5 33.5 26.890625 33.5 20 C 33.5 13.109375 27.890625 7.5 21 7.5 C 14.109375 7.5 8.5 13.109375 8.5 20 C 8.5 26.890625 14.109375 32.5 21 32.5 M 21 2 C 11.058594 2 3 10.058594 3 20 C 3 29.941406 11.058594 38 21 38 C 30.941406 38 39 29.941406 39 20 C 39 10.058594 30.941406 2 21 2 Z M 21 32 C 14.371094 32 9 26.628906 9 20 C 9 13.371094 14.371094 8 21 8 C 27.628906 8 33 13.371094 33 20 C 33 26.628906 27.628906 32 21 32 Z M 21 32 "/>
        <path style="stroke:#363636;fill-rule:nonzero;fill:rgb(90%,90%,90%);fill-opacity:1;" d="M 29 13.75 C 25.828125 13.75 23.25 11.171875 23.25 8 C 23.25 4.828125 25.828125 2.25 29 2.25 C 32.171875 2.25 34.75 4.828125 34.75 8 C 34.75 11.171875 32.171875 13.75 29 13.75 Z M 29 13.75 "/>
        <path style="stroke:#363636;fill-rule:nonzero;fill:rgb(90%,90%,90%);fill-opacity:1;" d="M 29 2.5 C 32.03125 2.5 34.5 4.96875 34.5 8 C 34.5 11.03125 32.03125 13.5 29 13.5 C 25.96875 13.5 23.5 11.03125 23.5 8 C 23.5 4.96875 25.96875 2.5 29 2.5 M 29 2 C 25.6875 2 23 4.6875 23 8 C 23 11.3125 25.6875 14 29 14 C 32.3125 14 35 11.3125 35 8 C 35 4.6875 32.3125 2 29 2 Z M 29 2 "/>
        <path style="stroke:#363636;fill-rule:nonzero;fill:rgb(90%,90%,90%);fill-opacity:1;" d="M 30 37.75 C 26.828125 37.75 24.25 35.171875 24.25 32 C 24.25 28.828125 26.828125 26.25 30 26.25 C 33.171875 26.25 35.75 28.828125 35.75 32 C 35.75 35.171875 33.171875 37.75 30 37.75 Z M 30 37.75 "/>
        <path style="stroke:#363636;fill-rule:nonzero;fill:rgb(90%,90%,90%);fill-opacity:1;" d="M 30 26.5 C 33.03125 26.5 35.5 28.96875 35.5 32 C 35.5 35.03125 33.03125 37.5 30 37.5 C 26.96875 37.5 24.5 35.03125 24.5 32 C 24.5 28.96875 26.96875 26.5 30 26.5 M 30 26 C 26.6875 26 24 28.6875 24 32 C 24 35.3125 26.6875 38 30 38 C 33.3125 38 36 35.3125 36 32 C 36 28.6875 33.3125 26 30 26 Z M 30 26 "/>
        <path style="stroke:#363636;fill-rule:nonzero;fill:rgb(90%,90%,90%);fill-opacity:1;" d="M 7 25.75 C 3.828125 25.75 1.25 23.171875 1.25 20 C 1.25 16.828125 3.828125 14.25 7 14.25 C 10.171875 14.25 12.75 16.828125 12.75 20 C 12.75 23.171875 10.171875 25.75 7 25.75 Z M 7 25.75 "/>
        <path style="stroke:#363636;fill-rule:nonzero;fill:rgb(90%,90%,90%);fill-opacity:1;" d="M 7 14.5 C 10.03125 14.5 12.5 16.96875 12.5 20 C 12.5 23.03125 10.03125 25.5 7 25.5 C 3.96875 25.5 1.5 23.03125 1.5 20 C 1.5 16.96875 3.96875 14.5 7 14.5 M 7 14 C 3.6875 14 1 16.6875 1 20 C 1 23.3125 3.6875 26 7 26 C 10.3125 26 13 23.3125 13 20 C 13 16.6875 10.3125 14 7 14 Z M 7 14 "/>
    </g>
</svg>
